<svg xmlns="http://www.w3.org/2000/svg" viewBox="0 0 232.95 78.1"><defs><style>.cls-1{fill:#125ffb;}.cls-2{fill:#16d0cb;}.cls-3{fill:#001a4c;}.cls-4{fill:#1660fc;}.cls-5{fill:#001a4f;}.cls-6{fill:#001a4b;}.cls-7{fill:#207bfd;}.cls-8{fill:#011a4d;}.cls-9{fill:#2d99fe;}.cls-10{fill:#011a4f;}.cls-11{fill:#227dfd;}.cls-12{fill:#011b4e;}.cls-13{fill:#001a4d;}.cls-14{fill:#1460fa;}.cls-15{fill:#02194b;}.cls-16{fill:#1461fb;}.cls-17{fill:#01194c;}.cls-18{fill:#00194c;}.cls-19{fill:#011b50;}.cls-20{fill:#021c4e;}.cls-21{fill:#01194b;}.cls-22{fill:none;}.cls-23{fill:#145ffa;}.cls-24{fill:#021a4e;}.cls-25{fill:#011b4d;}</style></defs><title>資產 7</title><g id="圖層_2" data-name="圖層 2"><g id="圖層_1-2" data-name="圖層 1"><path class="cls-1" d="M49.34,13.84a7.6,7.6,0,0,1-1.6-.56c-.09-.08-.23,0-.32-.09a.51.51,0,0,1-.43-.12c-.1-.09-.24,0-.34-.09-1-.21-2.06-.45-3.11-.6a30.94,30.94,0,0,0-5.69-.22,27.43,27.43,0,0,0-9.91,2.5,26.16,26.16,0,0,0-7.17,4.79A29.83,29.83,0,0,0,15,26.79a25.52,25.52,0,0,0-2,4.67,28.94,28.94,0,0,0-1.24,5.28,23.79,23.79,0,0,0-.13,5,25.75,25.75,0,0,0,3.2,10.57A27.19,27.19,0,0,0,26.48,63.56a27.48,27.48,0,0,0,9,2.74,26.89,26.89,0,0,0,9-.32,29.5,29.5,0,0,0,8.79-3.4,32,32,0,0,0,4-2.74,1.6,1.6,0,0,1,.44-.29c.42,0,.21.23.09.33-.63.51-1.11,1.17-1.78,1.63-1.32.89-2.37,2.13-4,2.81a.86.86,0,0,0,.79.05,1.15,1.15,0,0,1,1.56,1.11.59.59,0,0,0,.61.61,1.52,1.52,0,0,1,.85.39c.57.4,1.1.86,1.67,1.22a3.13,3.13,0,0,0,1.52.56,6.25,6.25,0,0,1,1.39.54c.19.06.24.3.3.49.21.64.5.78,1.14.54a11,11,0,0,0,2-1.18c.19-.13.37-.28.57-.4a3,3,0,0,0,1.23-1.38c.23-.52.47-1,.73-1.55.08-.16.14-.34.33-.4a.41.41,0,0,1,0,.46A6.81,6.81,0,0,1,66,67.24a3.87,3.87,0,0,1-1.19,1.44,44.38,44.38,0,0,1-11.63,6.76,40.19,40.19,0,0,1-10,2.42,37.09,37.09,0,0,1-7.74.07,37.9,37.9,0,0,1-15.64-4.87A1.74,1.74,0,0,0,18.16,73c-2.48,1-5,1.9-7.49,2.84a4.7,4.7,0,0,1-2.41.36,3.59,3.59,0,0,1-2.89-4.22C6.12,69,6.74,66,7.44,63.08a1.69,1.69,0,0,0-.3-1.53,39.45,39.45,0,0,1-4.5-8.3A37.37,37.37,0,0,1,.3,44.33a32.77,32.77,0,0,1-.09-8.1,40.36,40.36,0,0,1,4-13.36,42.66,42.66,0,0,1,5.33-8.32,39,39,0,0,1,7.8-7.2,40.67,40.67,0,0,1,9.67-5A39.27,39.27,0,0,1,35.42.3,36.74,36.74,0,0,1,42.83.1c.91.07,1.83.15,2.73.28l.58.11c.16.12.36,0,.53.1l.23,0c.13.09.29,0,.43.08l.21,0c.13.09.29,0,.41.08l.13,0c.1.08.23,0,.33.08a.12.12,0,0,1,.1,0c.09.1.23,0,.33.09a.08.08,0,0,1,.1,0c.12.11.29,0,.42.09h0c.12.14.31,0,.44.11a.07.07,0,0,1,.09,0c.1.09.24,0,.34.08a.12.12,0,0,1,.1,0c.09.1.22,0,.32.09s.29.05.43.12.22,0,.31.1h0c0,.4-.32.32-.56.27-1.19-.27-2.4-.4-3.6-.61a9.24,9.24,0,0,0-2.35,0c-.54,0-.64.21-.53.74a1.28,1.28,0,0,1,0,.58,15.54,15.54,0,0,0,0,3.05A2.32,2.32,0,0,0,45,7a15.17,15.17,0,0,1,1.12,2.63,3.36,3.36,0,0,1,0,1.7.64.64,0,0,0,.39.73c.78.4,1.6.72,2.37,1.15a1,1,0,0,1,.55.48C49.49,13.74,49.54,13.87,49.34,13.84Z"/><path class="cls-2" d="M64.51,50.44a4.15,4.15,0,0,1-3.24-1.17c-1.3-1.34-2.58-2.7-3.87-4.05-.88-.92-1.76-1.84-2.62-2.77a4.32,4.32,0,0,1,1.13-6.68,3.73,3.73,0,0,1,3.84,0A6.26,6.26,0,0,1,61.23,37c1,1.05,2,2.08,3,3.12.29.31.31.31.57,0C67,37.5,69.36,35,71.65,32.48l7-7.78c.41-.46.81-.92,1.24-1.35a3.93,3.93,0,0,1,4.46-.86,4,4,0,0,1,2.47,3.89A4,4,0,0,1,86,28.64a4.6,4.6,0,0,1-.45.54c-1.48,1.51-2.87,3.11-4.31,4.66-2.72,2.95-5.43,5.92-8.15,8.87-1.53,1.67-3.07,3.31-4.61,5-.44.48-.86,1-1.3,1.44A3.8,3.8,0,0,1,64.51,50.44Z"/><path class="cls-3" d="M174.3,38c-.78,1-1.53,1.89-2.33,2.74a30.62,30.62,0,0,1-5.63,4.65,4.22,4.22,0,0,1-1.32.58,2.6,2.6,0,0,1-2.8-1.23,2.68,2.68,0,0,1,.94-3.69A24.09,24.09,0,0,0,173,28.82a33.41,33.41,0,0,0,1.56-6,68.8,68.8,0,0,0,.88-7,3.09,3.09,0,0,1,.42-1.48,2.82,2.82,0,0,1,3.24-1.07A2.61,2.61,0,0,1,181,15.89c0,.89-.15,1.78-.24,2.68a59.24,59.24,0,0,1-.93,6.21,40.79,40.79,0,0,1-2.36,8,.81.81,0,0,0,.22,1q3.27,3.42,6.5,6.88a3.51,3.51,0,0,1,.83,1.18,2.72,2.72,0,0,1-1.13,3.32,2.61,2.61,0,0,1-3.45-.5c-1.94-2.17-3.9-4.3-5.89-6.42C174.44,38.17,174.39,38.09,174.3,38Z"/><path class="cls-4" d="M219.62,62.72a.39.39,0,0,0,.13-.06c2.43-2.6,5-5.09,7.41-7.65.37-.39.73-.79,1.12-1.17A2.31,2.31,0,0,1,232.17,55a2.26,2.26,0,0,1-.63,2.22c-2,1.94-3.9,3.91-5.84,5.86-.39.4-.41.4-.08.85l5.25,7.22,1.44,2a2.29,2.29,0,0,1-1.53,3.6,2.26,2.26,0,0,1-2.43-1c-1.61-2.33-3.31-4.6-5-6.89-.43-.6-.9-1.16-1.34-1.75-.16-.21-.28-.23-.46,0a17.47,17.47,0,0,1-1.84,1.81.74.74,0,0,0-.22.63c0,1.22,0,2.44,0,3.66a13.08,13.08,0,0,0,0,1.4,2.26,2.26,0,0,1-2.72,2.17,2.17,2.17,0,0,1-1.83-2,11.84,11.84,0,0,1,0-1.19V57.35c0-.66,0-1.32,0-2a2.32,2.32,0,0,1,2.28-2.18,2.24,2.24,0,0,1,2.28,2.24c0,1.59,0,3.19,0,4.79,0,.71,0,1.43,0,2.15C219.54,62.48,219.51,62.61,219.62,62.72Z"/><path class="cls-5" d="M111.22,53.06A11.52,11.52,0,0,1,117.56,55a4,4,0,0,1,1.28,1.21,2.16,2.16,0,0,1,.06,2.35,2.3,2.3,0,0,1-2.1,1.26,1.82,1.82,0,0,1-1-.36c-.36-.26-.7-.55-1.09-.78A6.87,6.87,0,0,0,106,60.13a7.51,7.51,0,0,0,.87,10.79,6.86,6.86,0,0,0,6,1.29,6.48,6.48,0,0,0,2.64-1.27,2,2,0,0,1,2.31-.31,2.29,2.29,0,0,1,1.33,2.11,2.13,2.13,0,0,1-.94,1.84A11.14,11.14,0,0,1,115.8,76a11.46,11.46,0,0,1-7.32.66,11.07,11.07,0,0,1-8.8-9,11.7,11.7,0,0,1,2.57-10.32A11.35,11.35,0,0,1,111.22,53.06Z"/><path class="cls-6" d="M164,36a2.36,2.36,0,0,1-1.44,2c-3.83,1.69-7.66,3.39-11.61,4.81-.38.14-.77.29-1.16.42a2.52,2.52,0,0,1-1.83-4.67,30.5,30.5,0,0,1,3-1.1c.32-.11.72-.13.92-.4s0-.62,0-.94q-.1-3.51-.23-7l-.33-10.74a4.63,4.63,0,0,1,.11-1.44A2.57,2.57,0,0,1,154.06,15a2.48,2.48,0,0,1,2.34,2.07,3.35,3.35,0,0,1,.08.54c.08,2.32.15,4.65.23,7,.12,3.35.17,6.7.23,10.05,0,.45,0,.46.46.3,1.17-.45,2.37-.84,3.51-1.35A2.3,2.3,0,0,1,164,36Z"/><path class="cls-7" d="M49.34,13.84c.08-.05.07-.11,0-.18a2,2,0,0,0-.53-.37c-.84-.47-1.75-.79-2.6-1.26a.43.43,0,0,1-.26-.59A9.75,9.75,0,0,0,46,9.73a.3.3,0,0,0-.1-.24,1,1,0,0,1-.33-1,.39.39,0,0,0-.08-.31.94.94,0,0,1-.37-.73.25.25,0,0,0-.16-.2.42.42,0,0,1-.25-.44.53.53,0,0,0-.15-.39,1.08,1.08,0,0,1-.28-1c.05-.61-.17-1.2-.11-1.81a4.34,4.34,0,0,1,.08-.8,1.65,1.65,0,0,0-.1-1c-.11-.35-.05-.48.28-.61a1.63,1.63,0,0,1,.42-.11,12.51,12.51,0,0,1,2.12,0c.52.08,1,.13,1.57.26s1.2.16,1.79.26a3.17,3.17,0,0,1,.62.18.33.33,0,0,0,.45-.17,7.67,7.67,0,0,1,1.49.42,38.68,38.68,0,0,1,6.6,3c.22.13.42.28.63.41-.12.25-.21.3-.54.16C59.07,5.4,58.53,5.19,58,5a14.49,14.49,0,0,0-1.7-.52.44.44,0,0,0-.5.09c-.14.19,0,.34.12.48a1.23,1.23,0,0,1,.25.75A5,5,0,0,0,56.35,7s0,.07,0,.1c-.25.85.25,1.72-.1,2.59a17.35,17.35,0,0,0-.23,1.8.2.2,0,0,0,0,.11c.54.92.3,2.06.84,3a9.38,9.38,0,0,1,.76,1.52.78.78,0,0,1-.07.9c-.15.16-.11.31,0,.47a6.57,6.57,0,0,0,2.89,2.4,5.17,5.17,0,0,0,1.4.37c.3,0,.66,0,.71.47h-.07a3.36,3.36,0,0,1-1.14,0l-.18,0c-.14-.1-.32,0-.47-.09a4,4,0,0,1-2.24-1c-.86-.69-1.69-1.41-2.59-2.06a30.51,30.51,0,0,0-6.48-3.62A.71.71,0,0,1,49.34,13.84Z"/><path class="cls-8" d="M177.56,77a10.33,10.33,0,0,1-5.9-1.6,2.07,2.07,0,0,1-.94-2.5,1.9,1.9,0,0,1,2.48-1.22,5.44,5.44,0,0,1,1,.63,5.07,5.07,0,0,0,3.27,1,4.54,4.54,0,0,0,1.21-.23,1.31,1.31,0,0,0,.93-1.21,1.2,1.2,0,0,0-.81-1.15,11.4,11.4,0,0,0-2.06-.63,14.07,14.07,0,0,1-3.51-1.17A4.29,4.29,0,0,1,171,66.1,4.83,4.83,0,0,1,173.17,61a7.71,7.71,0,0,1,4.86-1,10.9,10.9,0,0,1,3.36.92,5.25,5.25,0,0,1,1,.57,1.91,1.91,0,0,1,.49,2.66,1.68,1.68,0,0,1-2.23.56c-.24-.12-.45-.29-.68-.43a5.11,5.11,0,0,0-3.13-.77,2.09,2.09,0,0,0-1.24.47,1,1,0,0,0,0,1.69,2,2,0,0,0,.62.31c.84.32,1.72.49,2.58.74a15,15,0,0,1,2.43.87,4.42,4.42,0,0,1,2.52,2.9,4.77,4.77,0,0,1-2.65,5.68A8.94,8.94,0,0,1,177.56,77Z"/><path class="cls-9" d="M62.6,20.73a.9.9,0,0,0-.8-.34,2.12,2.12,0,0,1-1.13-.27,7.58,7.58,0,0,1-1.34-.66,4.46,4.46,0,0,1-1.17-1.08,4.9,4.9,0,0,0-.73-.85c-.28-.28-.28-.34,0-.58a.45.45,0,0,0,.13-.62,3.7,3.7,0,0,1-.3-.74c-.07-.23-.09-.49-.38-.59a.15.15,0,0,1-.1-.12c-.09-.43-.34-.82-.42-1.24a3.83,3.83,0,0,1-.14-1.17.5.5,0,0,0-.19-.47.53.53,0,0,1-.16-.62A3.17,3.17,0,0,0,56,10.16a1.63,1.63,0,0,1,.2-.82.63.63,0,0,0-.08-.83.31.31,0,0,1-.1-.39,1.59,1.59,0,0,0,.07-1.44,3.06,3.06,0,0,1-.09-.9.85.85,0,0,0-.3-.77.45.45,0,0,1-.18-.51c.08-.21.28-.26.5-.25a2.35,2.35,0,0,1,.37,0,19.84,19.84,0,0,1,3,1.09,1.83,1.83,0,0,0,.6.19c.1,0,.13,0,.15-.12.59.35,1.19.69,1.76,1.07A39.15,39.15,0,0,1,66.39,10a6.45,6.45,0,0,1,2,3.93,4.92,4.92,0,0,1-.53,3,6.59,6.59,0,0,1-5,3.8Z"/><path class="cls-10" d="M160,77a10.16,10.16,0,0,1-5.47-1.68,2.11,2.11,0,0,1-.87-2.48,2,2,0,0,1,2.58-1.13,7,7,0,0,1,.85.57,5.09,5.09,0,0,0,4.21.95,1.46,1.46,0,0,0,1.12-.83,1.11,1.11,0,0,0-.47-1.56,5,5,0,0,0-1.3-.49l-2.61-.67a8.35,8.35,0,0,1-1.79-.71,4.33,4.33,0,0,1-2.09-5.5,4.79,4.79,0,0,1,3-2.9,9.16,9.16,0,0,1,7.73.69,2.27,2.27,0,0,1,1.22,1.37,1.93,1.93,0,0,1-.58,2,1.78,1.78,0,0,1-2,.23,4.26,4.26,0,0,1-.5-.32,4.59,4.59,0,0,0-3.67-.82,1.72,1.72,0,0,0-.89.47,1,1,0,0,0,.1,1.59,2.6,2.6,0,0,0,.82.4l3.35,1a7.8,7.8,0,0,1,2,.84,4.49,4.49,0,0,1,2,4.78A4.59,4.59,0,0,1,164,76.24,9.92,9.92,0,0,1,160,77Z"/><path class="cls-11" d="M66.71,65.38l0-.34c-.22.1-.18.32-.26.48a4.16,4.16,0,0,0-.28.51c-.15.4-.36.77-.55,1.16a3.06,3.06,0,0,1-1.26,1.26c-.56.35-1.1.73-1.65,1.1a3.46,3.46,0,0,1-1.06.51.77.77,0,0,1-1-.67c-.06-.33-.15-.6-.56-.58a.36.36,0,0,1-.2-.06,2.85,2.85,0,0,0-1.24-.41c-.4-.08-.72-.46-1.18-.43-.16-.24-.46-.34-.59-.61a.53.53,0,0,0-.52-.32c-.27,0-.4-.22-.55-.38a1,1,0,0,0-.84-.38c-.45,0-.66-.23-.67-.71a1,1,0,0,0-1.35-1,2,2,0,0,1-.69.12c-.12,0-.27,0-.31-.14a.28.28,0,0,1,.18-.31,8.51,8.51,0,0,0,.92-.54,6.41,6.41,0,0,0,1.45-1.09,9.6,9.6,0,0,1,1.43-1.11,8.38,8.38,0,0,0,1.08-1,4.9,4.9,0,0,1,.8-.7c.14-.09.08-.17-.07-.2a5.57,5.57,0,0,1,5-.68,5.84,5.84,0,0,1,3.95,4.19A4.16,4.16,0,0,1,66.71,65.38Z"/><path class="cls-12" d="M124,65.05V55.86a2.81,2.81,0,0,1,.48-1.78,2.16,2.16,0,0,1,2.33-.85,2,2,0,0,1,1.61,1.67,4.76,4.76,0,0,1,.07.75v18.6c0,.23-.05.46-.06.69a2.16,2.16,0,0,1-2.38,1.85,2.24,2.24,0,0,1-2-2.06c0-.22,0-.43,0-.65v-9Z"/><path class="cls-13" d="M105.15,15.15c-.56-.71-1.1-1.38-1.64-2a2.55,2.55,0,0,1,.39-3.72,2.39,2.39,0,0,1,3.4.42c.62.82,1.18,1.67,1.76,2.51a2.55,2.55,0,0,1,.39,1.9,2.14,2.14,0,0,1-.46.93.53.53,0,0,0,.41.07h2.69a2,2,0,0,1,1.85,1.08,2.51,2.51,0,0,1-.85,3.31,2.23,2.23,0,0,1-1.13.28c-1.15,0-2.29,0-3.44,0l-7,0a10.56,10.56,0,0,1-1.13-.05,2.25,2.25,0,0,1-2.06-2.34,2.27,2.27,0,0,1,2.28-2.3c1.36,0,2.73,0,4.09,0A.94.94,0,0,0,105.15,15.15Z"/><path class="cls-14" d="M38,51.85a9.53,9.53,0,0,1-7-2.91,5,5,0,0,1-1-1.48,2,2,0,0,1,2-2.76,1.83,1.83,0,0,1,1.42.94,4.19,4.19,0,0,0,.91,1.06,6,6,0,0,0,7.38-.14,3.92,3.92,0,0,0,.55-.6,5.35,5.35,0,0,1,.43-.54A1.89,1.89,0,0,1,45,44.86a2.08,2.08,0,0,1,1.22,2,3,3,0,0,1-.86,1.81,9.46,9.46,0,0,1-5.57,3A9,9,0,0,1,38,51.85Z"/><path class="cls-15" d="M169.55,25.22a2.78,2.78,0,0,1-1.64,2.46,2.37,2.37,0,0,1-2.67-.3,1.89,1.89,0,0,1-.49-.56,47.08,47.08,0,0,0-3.62-5.14,2.27,2.27,0,0,1-.17-2.83,2.53,2.53,0,0,1,4.09-.33c1.34,1.66,2.62,3.37,3.91,5.06A2.5,2.5,0,0,1,169.55,25.22Z"/><path class="cls-16" d="M43.3,36.66a4.13,4.13,0,1,1,4.11,4.08A4.08,4.08,0,0,1,43.3,36.66Z"/><path class="cls-16" d="M28.19,40.74a4.08,4.08,0,0,1-4-4.21,4.1,4.1,0,1,1,4,4.21Z"/><path class="cls-17" d="M106.11,32.37c-1.15,0-2.3,0-3.45,0a2.2,2.2,0,0,1-2.23-2.1,2.35,2.35,0,0,1,1.92-2.38,5.85,5.85,0,0,1,.59,0h6.78a2,2,0,0,1,1.8.89,2.31,2.31,0,0,1,.19,2.4,2,2,0,0,1-1.89,1.21c-1.24,0-2.48,0-3.71,0Z"/><path class="cls-18" d="M106.14,26.22c-1.14,0-2.27,0-3.4,0a2.16,2.16,0,0,1-2.25-2.17,2.28,2.28,0,0,1,2.17-2.35h7a2.2,2.2,0,0,1,2.15,1.49,2.38,2.38,0,0,1-.68,2.54,2.08,2.08,0,0,1-1.39.5Z"/><path class="cls-19" d="M210,39.14a1.9,1.9,0,0,1-.09.58c-.47,1.53-1,3-1.55,4.52a2.33,2.33,0,0,1-2.22,1.6,2.29,2.29,0,0,1-2.24-1.3,1.7,1.7,0,0,1-.1-1.36c.13-.39.28-.77.44-1.15a29.24,29.24,0,0,0,1.16-3.12c0-.17.13-.33.18-.5a2.33,2.33,0,0,1,3.58-.94A2.38,2.38,0,0,1,210,39.14Z"/><path class="cls-20" d="M213.65,37.17a2.07,2.07,0,0,1,1.8,1.31,1.45,1.45,0,0,1,.12.35c.29,1.33.59,2.66.85,4A2.12,2.12,0,0,1,215.35,45a2.07,2.07,0,0,1-2.5-.21,1.92,1.92,0,0,1-.65-1.15c-.22-1.36-.58-2.69-.82-4A2.1,2.1,0,0,1,213.65,37.17Z"/><path class="cls-12" d="M219.88,44.29a1.84,1.84,0,0,1-2-1.3c-.38-1.19-.74-2.39-1.06-3.6A1.8,1.8,0,0,1,218,37.08a2,2,0,0,1,2.5.92,6.91,6.91,0,0,1,.48,1.24c.26.8.52,1.6.76,2.4a2,2,0,0,1-1.4,2.59C220.12,44.27,219.94,44.28,219.88,44.29Z"/><path class="cls-21" d="M224.67,42.49a1.86,1.86,0,0,1-1.89-1.31c-.29-.8-.55-1.62-.86-2.43a1.9,1.9,0,0,1,3.62-1.15c.28.81.57,1.62.91,2.41A1.8,1.8,0,0,1,224.67,42.49Z"/><path class="cls-9" d="M61.39,20.73h1.14A1.93,1.93,0,0,1,61.39,20.73Z"/><path class="cls-7" d="M46.67.59c-.19,0-.38.07-.53-.1A.83.83,0,0,1,46.67.59Z"/><path class="cls-7" d="M47.33.69c-.15,0-.31.06-.43-.08A.55.55,0,0,1,47.33.69Z"/><path class="cls-7" d="M48,.8c-.14,0-.29.06-.41-.08A.53.53,0,0,1,48,.8Z"/><path class="cls-7" d="M49.36,1.12c-.15,0-.31.06-.42-.09A.49.49,0,0,1,49.36,1.12Z"/><path class="cls-9" d="M60.74,20.62c.17,0,.34-.06.47.09A.6.6,0,0,1,60.74,20.62Z"/><path class="cls-7" d="M49.81,1.23c-.16,0-.33.07-.44-.11A.62.62,0,0,1,49.81,1.23Z"/><path class="cls-7" d="M48.41.9c-.12,0-.24,0-.33-.08A.4.4,0,0,1,48.41.9Z"/><path class="cls-7" d="M48.84,1c-.12,0-.25,0-.33-.09A.4.4,0,0,1,48.84,1Z"/><path class="cls-7" d="M51.4,1.66c-.12,0-.24,0-.31-.1A.32.32,0,0,1,51.4,1.66Z"/><path class="cls-7" d="M47.42,13.19c.12,0,.24,0,.32.09A.34.34,0,0,1,47.42,13.19Z"/><path class="cls-7" d="M46.65,13c.13,0,.25,0,.34.09A.41.41,0,0,1,46.65,13Z"/><path class="cls-7" d="M50.66,1.44c-.12,0-.24,0-.32-.09A.37.37,0,0,1,50.66,1.44Z"/><path class="cls-7" d="M50.24,1.33c-.12,0-.25,0-.34-.08A.37.37,0,0,1,50.24,1.33Z"/><path class="cls-22" d="M129.38,17.39c.49,0,1,0,1.45,0v0c.49,0,1,0,1.46,0,.3,0,.37-.1.36-.37s0-.68,0-1a1.22,1.22,0,0,0-1.34-1.29c-.61,0-1.22,0-1.83,0-.3,0-.38.12-.37.38,0,.68,0,1.36,0,2C129.09,17.32,129.17,17.4,129.38,17.39Z"/><path class="cls-22" d="M129.38,17.39c.49,0,1,0,1.45,0v0c.49,0,1,0,1.46,0,.3,0,.37-.1.36-.37s0-.68,0-1a1.22,1.22,0,0,0-1.34-1.29c-.61,0-1.22,0-1.83,0-.3,0-.38.12-.37.38,0,.68,0,1.36,0,2C129.09,17.32,129.17,17.4,129.38,17.39Z"/><path class="cls-22" d="M129.28,24.49a12.62,12.62,0,0,0,2.3-.1,1.07,1.07,0,0,0,1-1.08c0-.42,0-.86,0-1.28,0-.24-.12-.27-.3-.26h-3c-.22,0-.32.06-.32.3,0,.7,0,1.4,0,2.1C129.05,24.31,129,24.5,129.28,24.49Z"/><path class="cls-13" d="M137.7,41.16a57.82,57.82,0,0,1-6.06-5.32.25.25,0,0,1-.13-.26h4.65a3.15,3.15,0,0,0,.8-.08,2.33,2.33,0,0,0,1.66-2.56,2.21,2.21,0,0,0-2.27-2h-5.87c-.36,0-.72,0-1.08,0s-.35-.07-.35-.33c0-.45,0-.9,0-1.35,0-.29.1-.36.37-.35.68,0,1.37,0,2,0a8.84,8.84,0,0,0,2.75-.44,3.9,3.9,0,0,0,2.53-2.32,9.37,9.37,0,0,0,.58-2.72c.17-2.46.1-4.91.07-7.37a8.93,8.93,0,0,0-.5-3.11,3.81,3.81,0,0,0-1.86-2.07,7.93,7.93,0,0,0-3.7-.78c-3,0-5.92,0-8.88,0a9.68,9.68,0,0,0-2.4.3,4.31,4.31,0,0,0-2.93,2.41,7.92,7.92,0,0,0-.6,2.39,43.84,43.84,0,0,0-.16,6.28,24.3,24.3,0,0,0,.38,3.9,3.94,3.94,0,0,0,3.16,3.33,7,7,0,0,0,1.71.21H124c.19,0,.36,0,.36.27,0,.5,0,1,0,1.5,0,.18-.08.26-.26.25h-6.73a2.32,2.32,0,0,0-.1,4.64c1.1,0,2.19,0,3.29,0h1.15a1,1,0,0,1-.34.46c-.84.89-1.7,1.75-2.59,2.58a22,22,0,0,1-2.94,2.52,2.47,2.47,0,0,0-.61,3.3,2.31,2.31,0,0,0,3.27.58,4.73,4.73,0,0,0,.43-.31c1-.89,2.08-1.77,3.07-2.71l2.2-2.11c.13.14.07.29.07.42,0,1.61,0,3.23,0,4.84a4.66,4.66,0,0,0,0,.75,2.07,2.07,0,0,0,1.49,1.86,2.44,2.44,0,0,0,3.2-2.32c-.05-1.65,0-3.3,0-5a1.29,1.29,0,0,1,.06-.64.62.62,0,0,1,.16.07,27.77,27.77,0,0,0,2.19,2.15c1,.95,2.06,1.89,3.15,2.76a2.33,2.33,0,0,0,3.07.09A2.36,2.36,0,0,0,137.7,41.16ZM121.27,15.51a1.09,1.09,0,0,1,.72-.67,8,8,0,0,1,2.24-.13.18.18,0,0,1,.19.21c0,.76,0,1.51,0,2.26,0,.17-.1.2-.25.2h-2.68c-.38,0-.39,0-.39-.4A3.4,3.4,0,0,1,121.27,15.51Zm2.93,9a12.41,12.41,0,0,1-1.93-.07,1.28,1.28,0,0,1-1.17-1.31c0-.35,0-.71,0-1.07s.1-.28.3-.26h1.4c.43,0,.86,0,1.29,0,.26,0,.33.09.33.34,0,.7,0,1.4,0,2.09C124.42,24.37,124.4,24.49,124.2,24.48Zm5.25-9.79c.61,0,1.22,0,1.83,0A1.22,1.22,0,0,1,132.62,16c0,.34,0,.68,0,1s-.06.39-.36.37c-.49,0-1,0-1.46,0v0c-.48,0-1,0-1.45,0-.21,0-.29-.07-.28-.28,0-.68,0-1.36,0-2C129.07,14.81,129.15,14.68,129.45,14.69Zm-.4,7.36c0-.24.1-.3.32-.3h3c.18,0,.31,0,.3.26,0,.42,0,.86,0,1.28a1.07,1.07,0,0,1-1,1.08,12.62,12.62,0,0,1-2.3.1c-.24,0-.23-.18-.23-.34C129.05,23.45,129.06,22.75,129.05,22.05Z"/><path class="cls-13" d="M232.94,34.91a9.09,9.09,0,0,0-.11-1.17A3.37,3.37,0,0,0,230.54,31a7.77,7.77,0,0,0-2.47-.46c-1,0-2,0-3.07,0-.2,0-.42,0-.43-.26V28.48a.18.18,0,0,1,.2-.2h.37c1.29,0,2.59,0,3.88,0a2.23,2.23,0,0,0,0-4.43c-.43,0-.86,0-1.29,0-.94,0-1.87,0-2.8,0-.28,0-.4-.09-.39-.37s0-.75,0-1.13,0-.5.5-.5h3.82a2,2,0,0,0,1.94-1.22,2.23,2.23,0,0,0-.21-2.34,1.91,1.91,0,0,0-1.69-.88H225c-.42,0-.42,0-.43-.41s0-.94,0-1.4,0-.63.66-.63h4.2c.3,0,.61,0,.91,0a2.41,2.41,0,0,0,.2-4.77,4.31,4.31,0,0,0-.8-.06H216.49a13.53,13.53,0,0,0-2.2.2,4.9,4.9,0,0,0-4.2,4.27,28.26,28.26,0,0,0-.27,3.16c0,3.52,0,7,0,10.54a17.32,17.32,0,0,0,.33,3.59,3.69,3.69,0,0,0,2.55,3,6.45,6.45,0,0,0,1.3.3,46.33,46.33,0,0,0,5,.18h6.51l1.56,0a.8.8,0,0,1,.85.74,4.55,4.55,0,0,1,0,.53,19.27,19.27,0,0,1-.19,3.22,16.59,16.59,0,0,1-.52,2.69,1.11,1.11,0,0,1-1.17.9h-.7a1.91,1.91,0,0,0-1.28.5,2.38,2.38,0,0,0-.74,2.19,2.13,2.13,0,0,0,1.63,1.8,6.73,6.73,0,0,0,3.09.09A4.61,4.61,0,0,0,231.77,45a15.06,15.06,0,0,0,.85-3.44A41.58,41.58,0,0,0,232.94,34.91Zm-13.77-4.4c-.5,0-1,0-1.5,0h-1.24a2.53,2.53,0,0,1-.48,0c-.78-.12-1-.37-1.08-1.16,0-.23,0-.46,0-.69s.07-.39.36-.38c.61,0,1.22,0,1.83,0s1.43,0,2.15,0c.25,0,.36.07.36.33,0,.52,0,1,0,1.56C219.57,30.45,219.44,30.52,219.17,30.51Zm0-6.71c-.68,0-1.36,0-2,0h-1.87c-.39,0-.41,0-.42-.38s0-.89,0-1.34c0-.2.07-.28.28-.28h4.07c.24,0,.32.09.32.31,0,.45,0,.9,0,1.34C219.57,23.74,219.45,23.81,219.2,23.8Zm0-6.41c-.68,0-1.36,0-2,0h-1.94c-.38,0-.39,0-.39-.39a4.66,4.66,0,0,1,0-.75,1.3,1.3,0,0,1,1.5-1.33h1.51c.43,0,.86,0,1.29,0,.25,0,.35.1.35.35q0,.88,0,1.77C219.58,17.31,219.48,17.39,219.23,17.39Z"/><path class="cls-23" d="M209.74,59.66a11.48,11.48,0,0,0-10.46-6.61,9,9,0,0,0-3.95.73A11.52,11.52,0,0,0,189,59.45a12.13,12.13,0,0,0,0,11.28,10.78,10.78,0,0,0,4.71,4.87A11.56,11.56,0,0,0,204,76a11.2,11.2,0,0,0,6.65-7.82A11.59,11.59,0,0,0,209.74,59.66ZM198.57,72.35a6.58,6.58,0,0,1-5.47-3.84,7.31,7.31,0,0,1-.07-6.69,6.88,6.88,0,0,1,10.09-2.92,7.34,7.34,0,0,1,3.3,6.19A7.17,7.17,0,0,1,198.57,72.35Z"/><path class="cls-24" d="M207.42,25.22c0-1.42,0-2.83,0-4.25a10.64,10.64,0,0,0-.27-2.45,2.91,2.91,0,0,0-2-2.15,5.48,5.48,0,0,0-1.75-.28h-4.68a5.26,5.26,0,0,0-1.12.12,3.17,3.17,0,0,0-2.75,2.65,7.75,7.75,0,0,0-.13,1.18c-.13,3.53-.1,7.06,0,10.59a7.22,7.22,0,0,0,.27,1.91,3,3,0,0,0,1.92,2,4.27,4.27,0,0,0,1.37.26c1.71,0,3.41.08,5.12,0a9.33,9.33,0,0,0,1.17-.14,3.22,3.22,0,0,0,2.7-2.77,10.9,10.9,0,0,0,.2-2V25.22Zm-4.71.28c0,1.22,0,2.44,0,3.66,0,.74-.23.94-1,.95-.52,0-1,0-1.56,0s-.78-.23-.81-.79,0-.93,0-1.39c0-2,0-4,0-6,0-.14,0-.28,0-.43a.76.76,0,0,1,.75-.76,16,16,0,0,1,1.83,0,.74.74,0,0,1,.75.7,3.26,3.26,0,0,1,0,.54V25.5Z"/><path class="cls-25" d="M149.3,62.79a4.87,4.87,0,0,0,0-.54,2.22,2.22,0,0,0-.82-1.63,2.1,2.1,0,0,0-3.36,1.25c0,.09,0,.17-.07.39a4.64,4.64,0,0,0-.74-.85,6.19,6.19,0,0,0-3.92-1.4,7.18,7.18,0,0,0-6.48,4,9.12,9.12,0,0,0-.23,8.44,7.41,7.41,0,0,0,7.42,4.34,6.26,6.26,0,0,0,3.56-1.72c.14-.13.16-.38.42-.4,0,.19.07.38.11.57a1.78,1.78,0,0,0,.49.94,2.1,2.1,0,0,0,3.41-.63,3.28,3.28,0,0,0,.22-1.42Zm-5.73,8.87a4.14,4.14,0,0,1-3.08,1,3.45,3.45,0,0,1-2.88-2.13,4.82,4.82,0,0,1,.9-5.6,3.67,3.67,0,0,1,4.93-.08A4.71,4.71,0,0,1,143.57,71.66Z"/><path class="cls-12" d="M112.63,36.31a3,3,0,0,0-2-2,5.83,5.83,0,0,0-1.1-.24c-1.5-.13-3,0-4.51-.08a9.61,9.61,0,0,0-1.61.1c-2.27.33-3.49,1.44-3.67,3.71a29.34,29.34,0,0,0,0,4.78,5.4,5.4,0,0,0,.25,1.32,3.36,3.36,0,0,0,2.62,2.42,5.88,5.88,0,0,0,1.17.16h2.42v0H108a8.51,8.51,0,0,0,2.07-.26,3.45,3.45,0,0,0,2.5-2.36,6.75,6.75,0,0,0,.37-2.27c0-1.12,0-2.25,0-3.38A6.17,6.17,0,0,0,112.63,36.31Zm-4.23,5c0,.67-.23.85-.88.87H105.1a.85.85,0,0,1-.92-.78,15.87,15.87,0,0,1,0-2.58.73.73,0,0,1,.77-.62c.91,0,1.82,0,2.74,0a.64.64,0,0,1,.72.69c0,.3,0,.61,0,.92C108.41,40.27,108.43,40.77,108.4,41.27Z"/></g></g></svg>